<?xml version="1.0" encoding="UTF-8" standalone="no"?>
<!DOCTYPE svg PUBLIC "-//W3C//DTD SVG 1.1//EN"
 "http://www.w3.org/Graphics/SVG/1.1/DTD/svg11.dtd">
<!-- Generated by graphviz version 2.38.0 (20140413.2041)
 -->
<!-- Title: %3 Pages: 1 -->
<svg width="3650pt" height="239pt"
 viewBox="0.00 0.00 3650.07 238.54" xmlns="http://www.w3.org/2000/svg" xmlns:xlink="http://www.w3.org/1999/xlink">
<g id="graph0" class="graph" transform="scale(1 1) rotate(0) translate(4 234.539)">
<title>%3</title>
<polygon fill="white" stroke="none" points="-4,4 -4,-234.539 3646.07,-234.539 3646.07,4 -4,4"/>
<!-- 1 -->
<g id="node1" class="node"><title>1</title>
<ellipse fill="none" stroke="black" cx="71.4178" cy="-153.77" rx="71.3357" ry="21.8409"/>
<polygon fill="none" stroke="black" points="30.4178,-142.77 30.4178,-163.77 64.4178,-163.77 64.4178,-142.77 30.4178,-142.77"/>
<text text-anchor="start" x="33.4178" y="-150.57" font-family="Times,serif" font-weight="bold" font-size="14.00">start</text>
<polygon fill="none" stroke="black" points="64.4178,-142.77 64.4178,-163.77 113.418,-163.77 113.418,-142.77 64.4178,-142.77"/>
<text text-anchor="start" x="67.4178" y="-149.57" font-family="Times,serif" font-size="14.00">exact: 0</text>
<polygon fill="none" stroke="black" points="28.9178,-142.27 28.9178,-165.27 113.918,-165.27 113.918,-142.27 28.9178,-142.27"/>
</g>
<!-- 3 -->
<g id="node3" class="node"><title>3</title>
<ellipse fill="none" stroke="black" cx="306.324" cy="-193.77" rx="78.4777" ry="36.5405"/>
<polygon fill="none" stroke="black" points="260.324,-193.77 260.324,-214.77 304.324,-214.77 304.324,-193.77 260.324,-193.77"/>
<text text-anchor="start" x="263.324" y="-201.57" font-family="Times,serif" font-weight="bold" font-size="14.00">Artus</text>
<polygon fill="none" stroke="black" points="304.324,-193.77 304.324,-214.77 353.324,-214.77 353.324,-193.77 304.324,-193.77"/>
<text text-anchor="start" x="307.324" y="-200.57" font-family="Times,serif" font-size="14.00">exact: 1</text>
<polygon fill="none" stroke="black" points="260.324,-172.77 260.324,-193.77 304.324,-193.77 304.324,-172.77 260.324,-172.77"/>
<text text-anchor="start" x="263.324" y="-179.57" font-family="Bukyvede" font-size="14.00">Artus</text>
<polygon fill="none" stroke="black" points="304.324,-172.77 304.324,-193.77 353.324,-193.77 353.324,-172.77 304.324,-172.77"/>
<text text-anchor="start" x="307.324" y="-179.57" font-family="Times,serif" font-size="14.00">W1</text>
<polygon fill="none" stroke="black" points="258.824,-171.77 258.824,-215.77 353.824,-215.77 353.824,-171.77 258.824,-171.77"/>
</g>
<!-- 1&#45;&gt;3 -->
<g id="edge1" class="edge"><title>1&#45;&gt;3</title>
<path fill="none" stroke="black" d="M134.221,-164.384C161.225,-169.021 193.298,-174.53 222.338,-179.517"/>
<polygon fill="black" stroke="black" points="222.022,-183.014 232.47,-181.257 223.206,-176.115 222.022,-183.014"/>
<text text-anchor="middle" x="185.336" y="-180.57" font-family="Times,serif" font-size="14.00">W1</text>
</g>
<!-- 12 -->
<g id="node12" class="node"><title>12</title>
<ellipse fill="none" stroke="black" cx="306.324" cy="-101.77" rx="70.0071" ry="36.5405"/>
<polygon fill="none" stroke="black" points="266.324,-101.77 266.324,-122.77 292.324,-122.77 292.324,-101.77 266.324,-101.77"/>
<text text-anchor="start" x="269.324" y="-109.57" font-family="Times,serif" font-weight="bold" font-size="14.00">Et</text>
<polygon fill="none" stroke="black" points="292.324,-101.77 292.324,-122.77 347.324,-122.77 347.324,-101.77 292.324,-101.77"/>
<text text-anchor="start" x="295.324" y="-108.57" font-family="Times,serif" font-size="14.00">exact: 1</text>
<polygon fill="none" stroke="black" points="266.324,-80.7696 266.324,-101.77 292.324,-101.77 292.324,-80.7696 266.324,-80.7696"/>
<text text-anchor="start" x="269.324" y="-87.5696" font-family="Bukyvede" font-size="14.00">Et </text>
<polygon fill="none" stroke="black" points="292.324,-80.7696 292.324,-101.77 347.324,-101.77 347.324,-80.7696 292.324,-80.7696"/>
<text text-anchor="start" x="295.324" y="-87.5696" font-family="Times,serif" font-size="14.00">W2, W3</text>
<polygon fill="none" stroke="black" points="264.824,-79.7696 264.824,-123.77 347.824,-123.77 347.824,-79.7696 264.824,-79.7696"/>
</g>
<!-- 1&#45;&gt;12 -->
<g id="edge2" class="edge"><title>1&#45;&gt;12</title>
<path fill="none" stroke="black" d="M129.691,-140.982C160.451,-134.115 198.714,-125.572 231.666,-118.215"/>
<polygon fill="black" stroke="black" points="232.711,-121.568 241.708,-115.973 231.186,-114.736 232.711,-121.568"/>
<text text-anchor="middle" x="185.336" y="-138.57" font-family="Times,serif" font-size="14.00">W2, W3</text>
</g>
<!-- 2 -->
<g id="node2" class="node"><title>2</title>
<ellipse fill="none" stroke="black" cx="3569.95" cy="-102.77" rx="72.25" ry="21.8409"/>
<polygon fill="none" stroke="black" points="3527.95,-91.7696 3527.95,-112.77 3555.95,-112.77 3555.95,-91.7696 3527.95,-91.7696"/>
<text text-anchor="start" x="3530.95" y="-99.5696" font-family="Times,serif" font-weight="bold" font-size="14.00">end</text>
<polygon fill="none" stroke="black" points="3555.95,-91.7696 3555.95,-112.77 3611.95,-112.77 3611.95,-91.7696 3555.95,-91.7696"/>
<text text-anchor="start" x="3558.95" y="-98.5696" font-family="Times,serif" font-size="14.00">exact: 15</text>
<polygon fill="none" stroke="black" points="3526.95,-91.2696 3526.95,-114.27 3612.95,-114.27 3612.95,-91.2696 3526.95,-91.2696"/>
</g>
<!-- 4 -->
<g id="node4" class="node"><title>4</title>
<ellipse fill="none" stroke="black" cx="1318.23" cy="-143.77" rx="62.8651" ry="36.5405"/>
<polygon fill="none" stroke="black" points="1283.23,-143.77 1283.23,-164.77 1299.23,-164.77 1299.23,-143.77 1283.23,-143.77"/>
<text text-anchor="start" x="1286.23" y="-151.57" font-family="Times,serif" font-weight="bold" font-size="14.00">,</text>
<polygon fill="none" stroke="black" points="1299.23,-143.77 1299.23,-164.77 1354.23,-164.77 1354.23,-143.77 1299.23,-143.77"/>
<text text-anchor="start" x="1302.23" y="-150.57" font-family="Times,serif" font-size="14.00">exact: 6</text>
<polygon fill="none" stroke="black" points="1283.23,-122.77 1283.23,-143.77 1299.23,-143.77 1299.23,-122.77 1283.23,-122.77"/>
<text text-anchor="start" x="1286.23" y="-129.57" font-family="Bukyvede" font-size="14.00">, </text>
<polygon fill="none" stroke="black" points="1299.23,-122.77 1299.23,-143.77 1354.23,-143.77 1354.23,-122.77 1299.23,-122.77"/>
<text text-anchor="start" x="1302.23" y="-129.57" font-family="Times,serif" font-size="14.00">W1, W3</text>
<polygon fill="none" stroke="black" points="1281.73,-121.77 1281.73,-165.77 1354.73,-165.77 1354.73,-121.77 1281.73,-121.77"/>
</g>
<!-- 3&#45;&gt;4 -->
<g id="edge3" class="edge"><title>3&#45;&gt;4</title>
<path fill="none" stroke="black" d="M384.883,-193.77C426.429,-193.77 478.485,-193.77 524.959,-193.77 524.959,-193.77 524.959,-193.77 1134.24,-193.77 1176.39,-193.77 1222.12,-181.276 1257.33,-168.779"/>
<polygon fill="black" stroke="black" points="1258.77,-171.978 1266.97,-165.264 1256.37,-165.402 1258.77,-171.978"/>
<text text-anchor="middle" x="855.411" y="-197.57" font-family="Times,serif" font-size="14.00">W1</text>
</g>
<!-- 5 -->
<g id="node5" class="node"><title>5</title>
<ellipse fill="none" stroke="black" cx="1698.1" cy="-82.7696" rx="77.1494" ry="51.7379"/>
<polygon fill="none" stroke="black" points="1653.1,-92.7696 1653.1,-113.77 1689.1,-113.77 1689.1,-92.7696 1653.1,-92.7696"/>
<text text-anchor="start" x="1656.1" y="-100.57" font-family="Times,serif" font-weight="bold" font-size="14.00">dist</text>
<polygon fill="none" stroke="black" points="1689.1,-92.7696 1689.1,-113.77 1744.1,-113.77 1744.1,-92.7696 1689.1,-92.7696"/>
<text text-anchor="start" x="1692.1" y="-99.5696" font-family="Times,serif" font-size="14.00">exact: 8</text>
<polygon fill="none" stroke="black" points="1653.1,-71.7696 1653.1,-92.7696 1689.1,-92.7696 1689.1,-71.7696 1653.1,-71.7696"/>
<text text-anchor="start" x="1656.1" y="-78.5696" font-family="Bukyvede" font-size="14.00">dist</text>
<polygon fill="none" stroke="black" points="1689.1,-71.7696 1689.1,-92.7696 1744.1,-92.7696 1744.1,-71.7696 1689.1,-71.7696"/>
<text text-anchor="start" x="1692.1" y="-78.5696" font-family="Times,serif" font-size="14.00">W2, W3</text>
<polygon fill="none" stroke="black" points="1653.1,-50.7696 1653.1,-71.7696 1689.1,-71.7696 1689.1,-50.7696 1653.1,-50.7696"/>
<text text-anchor="start" x="1656.1" y="-57.5696" font-family="Bukyvede" font-size="14.00">dist </text>
<polygon fill="none" stroke="black" points="1689.1,-50.7696 1689.1,-71.7696 1744.1,-71.7696 1744.1,-50.7696 1689.1,-50.7696"/>
<text text-anchor="start" x="1692.1" y="-57.5696" font-family="Times,serif" font-size="14.00">W1</text>
<polygon fill="none" stroke="black" points="1651.6,-50.2696 1651.6,-115.27 1744.6,-115.27 1744.6,-50.2696 1651.6,-50.2696"/>
</g>
<!-- 4&#45;&gt;5 -->
<g id="edge4" class="edge"><title>4&#45;&gt;5</title>
<path fill="none" stroke="black" d="M1365.01,-118.912C1386.56,-108.493 1413,-97.4876 1438.16,-91.7696 1494.79,-78.9 1560.16,-76.7221 1611.05,-77.7251"/>
<polygon fill="black" stroke="black" points="1611.27,-81.2314 1621.36,-77.9752 1611.44,-74.2335 1611.27,-81.2314"/>
<text text-anchor="middle" x="1501.1" y="-95.5696" font-family="Times,serif" font-size="14.00">W1</text>
</g>
<!-- 21 -->
<g id="node21" class="node"><title>21</title>
<ellipse fill="none" stroke="black" cx="1501.1" cy="-152.77" rx="62.8651" ry="36.5405"/>
<polygon fill="none" stroke="black" points="1466.1,-152.77 1466.1,-173.77 1488.1,-173.77 1488.1,-152.77 1466.1,-152.77"/>
<text text-anchor="start" x="1469.1" y="-160.57" font-family="Times,serif" font-weight="bold" font-size="14.00">si</text>
<polygon fill="none" stroke="black" points="1488.1,-152.77 1488.1,-173.77 1537.1,-173.77 1537.1,-152.77 1488.1,-152.77"/>
<text text-anchor="start" x="1491.1" y="-159.57" font-family="Times,serif" font-size="14.00">exact: 7</text>
<polygon fill="none" stroke="black" points="1466.1,-131.77 1466.1,-152.77 1488.1,-152.77 1488.1,-131.77 1466.1,-131.77"/>
<text text-anchor="start" x="1469.1" y="-138.57" font-family="Bukyvede" font-size="14.00">si </text>
<polygon fill="none" stroke="black" points="1488.1,-131.77 1488.1,-152.77 1537.1,-152.77 1537.1,-131.77 1488.1,-131.77"/>
<text text-anchor="start" x="1491.1" y="-138.57" font-family="Times,serif" font-size="14.00">W3</text>
<polygon fill="none" stroke="black" points="1464.6,-130.77 1464.6,-174.77 1537.6,-174.77 1537.6,-130.77 1464.6,-130.77"/>
</g>
<!-- 4&#45;&gt;21 -->
<g id="edge5" class="edge"><title>4&#45;&gt;21</title>
<path fill="none" stroke="black" d="M1380.97,-146.842C1396.16,-147.598 1412.56,-148.414 1428.19,-149.192"/>
<polygon fill="black" stroke="black" points="1428.17,-152.695 1438.33,-149.696 1428.52,-145.703 1428.17,-152.695"/>
<text text-anchor="middle" x="1409.66" y="-153.57" font-family="Times,serif" font-size="14.00">W3</text>
</g>
<!-- 6 -->
<g id="node6" class="node"><title>6</title>
<ellipse fill="none" stroke="black" cx="1923.82" cy="-142.77" rx="63.7795" ry="36.5405"/>
<polygon fill="none" stroke="black" points="1887.82,-142.77 1887.82,-163.77 1910.82,-163.77 1910.82,-142.77 1887.82,-142.77"/>
<text text-anchor="start" x="1890.82" y="-150.57" font-family="Times,serif" font-weight="bold" font-size="14.00">la</text>
<polygon fill="none" stroke="black" points="1910.82,-142.77 1910.82,-163.77 1959.82,-163.77 1959.82,-142.77 1910.82,-142.77"/>
<text text-anchor="start" x="1913.82" y="-149.57" font-family="Times,serif" font-size="14.00">exact: 9</text>
<polygon fill="none" stroke="black" points="1887.82,-121.77 1887.82,-142.77 1910.82,-142.77 1910.82,-121.77 1887.82,-121.77"/>
<text text-anchor="start" x="1890.82" y="-128.57" font-family="Bukyvede" font-size="14.00">la </text>
<polygon fill="none" stroke="black" points="1910.82,-121.77 1910.82,-142.77 1959.82,-142.77 1959.82,-121.77 1910.82,-121.77"/>
<text text-anchor="start" x="1913.82" y="-128.57" font-family="Times,serif" font-size="14.00">W1</text>
<polygon fill="none" stroke="black" points="1886.82,-120.77 1886.82,-164.77 1960.82,-164.77 1960.82,-120.77 1886.82,-120.77"/>
</g>
<!-- 5&#45;&gt;6 -->
<g id="edge6" class="edge"><title>5&#45;&gt;6</title>
<path fill="none" stroke="black" d="M1769.89,-101.754C1797.36,-109.123 1828.68,-117.522 1855.79,-124.792"/>
<polygon fill="black" stroke="black" points="1855,-128.205 1865.57,-127.415 1856.82,-121.444 1855,-128.205"/>
<text text-anchor="middle" x="1817.68" y="-124.57" font-family="Times,serif" font-size="14.00">W1</text>
</g>
<!-- 15 -->
<g id="node15" class="node"><title>15</title>
<ellipse fill="none" stroke="black" cx="1923.82" cy="-50.7696" rx="62.8651" ry="36.5405"/>
<polygon fill="none" stroke="black" points="1888.82,-50.7696 1888.82,-71.7696 1904.82,-71.7696 1904.82,-50.7696 1888.82,-50.7696"/>
<text text-anchor="start" x="1891.82" y="-58.5696" font-family="Times,serif" font-weight="bold" font-size="14.00">:</text>
<polygon fill="none" stroke="black" points="1904.82,-50.7696 1904.82,-71.7696 1959.82,-71.7696 1959.82,-50.7696 1904.82,-50.7696"/>
<text text-anchor="start" x="1907.82" y="-57.5696" font-family="Times,serif" font-size="14.00">exact: 9</text>
<polygon fill="none" stroke="black" points="1888.82,-29.7696 1888.82,-50.7696 1904.82,-50.7696 1904.82,-29.7696 1888.82,-29.7696"/>
<text text-anchor="start" x="1891.82" y="-36.5696" font-family="Bukyvede" font-size="14.00">: </text>
<polygon fill="none" stroke="black" points="1904.82,-29.7696 1904.82,-50.7696 1959.82,-50.7696 1959.82,-29.7696 1904.82,-29.7696"/>
<text text-anchor="start" x="1907.82" y="-36.5696" font-family="Times,serif" font-size="14.00">W2, W3</text>
<polygon fill="none" stroke="black" points="1887.32,-28.7696 1887.32,-72.7696 1960.32,-72.7696 1960.32,-28.7696 1887.32,-28.7696"/>
</g>
<!-- 5&#45;&gt;15 -->
<g id="edge7" class="edge"><title>5&#45;&gt;15</title>
<path fill="none" stroke="black" d="M1773.6,-72.114C1798.96,-68.4866 1827.21,-64.4452 1852.25,-60.8632"/>
<polygon fill="black" stroke="black" points="1853,-64.2919 1862.4,-59.4111 1852.01,-57.3624 1853,-64.2919"/>
<text text-anchor="middle" x="1817.68" y="-72.5696" font-family="Times,serif" font-size="14.00">W2, W3</text>
</g>
<!-- 7 -->
<g id="node7" class="node"><title>7</title>
<ellipse fill="none" stroke="black" cx="2155.89" cy="-142.77" rx="82.0488" ry="36.5405"/>
<polygon fill="none" stroke="black" points="2106.89,-142.77 2106.89,-163.77 2148.89,-163.77 2148.89,-142.77 2106.89,-142.77"/>
<text text-anchor="start" x="2109.89" y="-150.57" font-family="Times,serif" font-weight="bold" font-size="14.00">reine</text>
<polygon fill="none" stroke="black" points="2148.89,-142.77 2148.89,-163.77 2204.89,-163.77 2204.89,-142.77 2148.89,-142.77"/>
<text text-anchor="start" x="2151.89" y="-149.57" font-family="Times,serif" font-size="14.00">exact: 10</text>
<polygon fill="none" stroke="black" points="2106.89,-121.77 2106.89,-142.77 2148.89,-142.77 2148.89,-121.77 2106.89,-121.77"/>
<text text-anchor="start" x="2109.89" y="-128.57" font-family="Bukyvede" font-size="14.00">reine</text>
<polygon fill="none" stroke="black" points="2148.89,-121.77 2148.89,-142.77 2204.89,-142.77 2204.89,-121.77 2148.89,-121.77"/>
<text text-anchor="start" x="2151.89" y="-128.57" font-family="Times,serif" font-size="14.00">W1</text>
<polygon fill="none" stroke="black" points="2105.89,-120.77 2105.89,-164.77 2205.89,-164.77 2205.89,-120.77 2105.89,-120.77"/>
</g>
<!-- 6&#45;&gt;7 -->
<g id="edge8" class="edge"><title>6&#45;&gt;7</title>
<path fill="none" stroke="black" d="M1987.69,-142.77C2011.06,-142.77 2038.08,-142.77 2063.49,-142.77"/>
<polygon fill="black" stroke="black" points="2063.51,-146.27 2073.51,-142.77 2063.51,-139.27 2063.51,-146.27"/>
<text text-anchor="middle" x="2029.96" y="-146.57" font-family="Times,serif" font-size="14.00">W1</text>
</g>
<!-- 8 -->
<g id="node8" class="node"><title>8</title>
<ellipse fill="none" stroke="black" cx="2406.36" cy="-102.77" rx="82.0488" ry="36.5405"/>
<polygon fill="none" stroke="black" points="2357.36,-102.77 2357.36,-123.77 2373.36,-123.77 2373.36,-102.77 2357.36,-102.77"/>
<text text-anchor="start" x="2360.36" y="-110.57" font-family="Times,serif" font-weight="bold" font-size="14.00">,</text>
<polygon fill="none" stroke="black" points="2373.36,-102.77 2373.36,-123.77 2455.36,-123.77 2455.36,-102.77 2373.36,-102.77"/>
<text text-anchor="start" x="2376.36" y="-109.57" font-family="Times,serif" font-size="14.00">exact: 11</text>
<polygon fill="none" stroke="black" points="2357.36,-81.7696 2357.36,-102.77 2373.36,-102.77 2373.36,-81.7696 2357.36,-81.7696"/>
<text text-anchor="start" x="2360.36" y="-88.5696" font-family="Bukyvede" font-size="14.00">, </text>
<polygon fill="none" stroke="black" points="2373.36,-81.7696 2373.36,-102.77 2455.36,-102.77 2455.36,-81.7696 2373.36,-81.7696"/>
<text text-anchor="start" x="2376.36" y="-88.5696" font-family="Times,serif" font-size="14.00">W1, W2, W3</text>
<polygon fill="none" stroke="black" points="2356.36,-80.7696 2356.36,-124.77 2456.36,-124.77 2456.36,-80.7696 2356.36,-80.7696"/>
</g>
<!-- 7&#45;&gt;8 -->
<g id="edge9" class="edge"><title>7&#45;&gt;8</title>
<path fill="none" stroke="black" d="M2233.47,-130.442C2260.52,-126.087 2291.12,-121.161 2318.93,-116.684"/>
<polygon fill="black" stroke="black" points="2319.72,-120.102 2329.04,-115.057 2318.61,-113.191 2319.72,-120.102"/>
<text text-anchor="middle" x="2281.83" y="-130.57" font-family="Times,serif" font-size="14.00">W1</text>
</g>
<!-- 9 -->
<g id="node9" class="node"><title>9</title>
<ellipse fill="none" stroke="black" cx="2687.36" cy="-102.77" rx="86.9483" ry="36.5405"/>
<polygon fill="none" stroke="black" points="2635.36,-102.77 2635.36,-123.77 2658.36,-123.77 2658.36,-102.77 2635.36,-102.77"/>
<text text-anchor="start" x="2638.36" y="-110.57" font-family="Times,serif" font-weight="bold" font-size="14.00">je</text>
<polygon fill="none" stroke="black" points="2658.36,-102.77 2658.36,-123.77 2740.36,-123.77 2740.36,-102.77 2658.36,-102.77"/>
<text text-anchor="start" x="2661.36" y="-109.57" font-family="Times,serif" font-size="14.00">exact: 12</text>
<polygon fill="none" stroke="black" points="2635.36,-81.7696 2635.36,-102.77 2658.36,-102.77 2658.36,-81.7696 2635.36,-81.7696"/>
<text text-anchor="start" x="2638.36" y="-88.5696" font-family="Bukyvede" font-size="14.00">je </text>
<polygon fill="none" stroke="black" points="2658.36,-81.7696 2658.36,-102.77 2740.36,-102.77 2740.36,-81.7696 2658.36,-81.7696"/>
<text text-anchor="start" x="2661.36" y="-88.5696" font-family="Times,serif" font-size="14.00">W1, W2, W3</text>
<polygon fill="none" stroke="black" points="2633.86,-80.7696 2633.86,-124.77 2740.86,-124.77 2740.86,-80.7696 2633.86,-80.7696"/>
</g>
<!-- 8&#45;&gt;9 -->
<g id="edge10" class="edge"><title>8&#45;&gt;9</title>
<path fill="none" stroke="black" d="M2488.43,-102.77C2520.22,-102.77 2556.94,-102.77 2590.06,-102.77"/>
<polygon fill="black" stroke="black" points="2590.21,-106.27 2600.21,-102.77 2590.21,-99.2697 2590.21,-106.27"/>
<text text-anchor="middle" x="2544.38" y="-106.57" font-family="Times,serif" font-size="14.00">W1, W2, W3</text>
</g>
<!-- 10 -->
<g id="node10" class="node"><title>10</title>
<ellipse fill="none" stroke="black" cx="2974.72" cy="-102.77" rx="88.2768" ry="36.5405"/>
<polygon fill="none" stroke="black" points="2921.72,-102.77 2921.72,-123.77 2946.72,-123.77 2946.72,-102.77 2921.72,-102.77"/>
<text text-anchor="start" x="2924.72" y="-110.57" font-family="Times,serif" font-weight="bold" font-size="14.00">te</text>
<polygon fill="none" stroke="black" points="2946.72,-102.77 2946.72,-123.77 3028.72,-123.77 3028.72,-102.77 2946.72,-102.77"/>
<text text-anchor="start" x="2949.72" y="-109.57" font-family="Times,serif" font-size="14.00">exact: 13</text>
<polygon fill="none" stroke="black" points="2921.72,-81.7696 2921.72,-102.77 2946.72,-102.77 2946.72,-81.7696 2921.72,-81.7696"/>
<text text-anchor="start" x="2924.72" y="-88.5696" font-family="Bukyvede" font-size="14.00">te </text>
<polygon fill="none" stroke="black" points="2946.72,-81.7696 2946.72,-102.77 3028.72,-102.77 3028.72,-81.7696 2946.72,-81.7696"/>
<text text-anchor="start" x="2949.72" y="-88.5696" font-family="Times,serif" font-size="14.00">W1, W2, W3</text>
<polygon fill="none" stroke="black" points="2920.22,-80.7696 2920.22,-124.77 3029.22,-124.77 3029.22,-80.7696 2920.22,-80.7696"/>
</g>
<!-- 9&#45;&gt;10 -->
<g id="edge11" class="edge"><title>9&#45;&gt;10</title>
<path fill="none" stroke="black" d="M2774.36,-102.77C2806.34,-102.77 2842.85,-102.77 2875.81,-102.77"/>
<polygon fill="black" stroke="black" points="2875.92,-106.27 2885.92,-102.77 2875.92,-99.2697 2875.92,-106.27"/>
<text text-anchor="middle" x="2830.33" y="-106.57" font-family="Times,serif" font-size="14.00">W1, W2, W3</text>
</g>
<!-- 11 -->
<g id="node11" class="node"><title>11</title>
<ellipse fill="none" stroke="black" cx="3280.47" cy="-102.77" rx="105.218" ry="36.5405"/>
<polygon fill="none" stroke="black" points="3215.47,-102.77 3215.47,-123.77 3264.47,-123.77 3264.47,-102.77 3215.47,-102.77"/>
<text text-anchor="start" x="3218.47" y="-110.57" font-family="Times,serif" font-weight="bold" font-size="14.00">conois</text>
<polygon fill="none" stroke="black" points="3264.47,-102.77 3264.47,-123.77 3346.47,-123.77 3346.47,-102.77 3264.47,-102.77"/>
<text text-anchor="start" x="3267.47" y="-109.57" font-family="Times,serif" font-size="14.00">exact: 14</text>
<polygon fill="none" stroke="black" points="3215.47,-81.7696 3215.47,-102.77 3264.47,-102.77 3264.47,-81.7696 3215.47,-81.7696"/>
<text text-anchor="start" x="3218.47" y="-88.5696" font-family="Bukyvede" font-size="14.00">conois</text>
<polygon fill="none" stroke="black" points="3264.47,-81.7696 3264.47,-102.77 3346.47,-102.77 3346.47,-81.7696 3264.47,-81.7696"/>
<text text-anchor="start" x="3267.47" y="-88.5696" font-family="Times,serif" font-size="14.00">W1, W2, W3</text>
<polygon fill="none" stroke="black" points="3213.97,-80.7696 3213.97,-124.77 3346.97,-124.77 3346.97,-80.7696 3213.97,-80.7696"/>
</g>
<!-- 10&#45;&gt;11 -->
<g id="edge12" class="edge"><title>10&#45;&gt;11</title>
<path fill="none" stroke="black" d="M3063.17,-102.77C3094.77,-102.77 3130.95,-102.77 3164.56,-102.77"/>
<polygon fill="black" stroke="black" points="3164.9,-106.27 3174.9,-102.77 3164.9,-99.2696 3164.9,-106.27"/>
<text text-anchor="middle" x="3119.11" y="-106.57" font-family="Times,serif" font-size="14.00">W1, W2, W3</text>
</g>
<!-- 11&#45;&gt;2 -->
<g id="edge13" class="edge"><title>11&#45;&gt;2</title>
<path fill="none" stroke="black" d="M3386.07,-102.77C3419.53,-102.77 3456.06,-102.77 3487.61,-102.77"/>
<polygon fill="black" stroke="black" points="3487.67,-106.27 3497.67,-102.77 3487.67,-99.2697 3487.67,-106.27"/>
<text text-anchor="middle" x="3441.82" y="-106.57" font-family="Times,serif" font-size="14.00">W1, W2, W3</text>
</g>
<!-- 13 -->
<g id="node13" class="node"><title>13</title>
<ellipse fill="none" stroke="black" cx="525.959" cy="-36.7696" rx="63.7795" ry="36.5405"/>
<polygon fill="none" stroke="black" points="489.959,-36.7696 489.959,-57.7696 512.959,-57.7696 512.959,-36.7696 489.959,-36.7696"/>
<text text-anchor="start" x="492.959" y="-44.5696" font-family="Times,serif" font-weight="bold" font-size="14.00">la</text>
<polygon fill="none" stroke="black" points="512.959,-36.7696 512.959,-57.7696 561.959,-57.7696 561.959,-36.7696 512.959,-36.7696"/>
<text text-anchor="start" x="515.959" y="-43.5696" font-family="Times,serif" font-size="14.00">exact: 2</text>
<polygon fill="none" stroke="black" points="489.959,-15.7696 489.959,-36.7696 512.959,-36.7696 512.959,-15.7696 489.959,-15.7696"/>
<text text-anchor="start" x="492.959" y="-22.5696" font-family="Bukyvede" font-size="14.00">la </text>
<polygon fill="none" stroke="black" points="512.959,-15.7696 512.959,-36.7696 561.959,-36.7696 561.959,-15.7696 512.959,-15.7696"/>
<text text-anchor="start" x="515.959" y="-22.5696" font-family="Times,serif" font-size="14.00">W2</text>
<polygon fill="none" stroke="black" points="488.959,-14.7696 488.959,-58.7696 562.959,-58.7696 562.959,-14.7696 488.959,-14.7696"/>
</g>
<!-- 12&#45;&gt;13 -->
<g id="edge14" class="edge"><title>12&#45;&gt;13</title>
<path fill="none" stroke="black" d="M367.659,-83.7497C396.14,-75.2434 430.191,-65.0735 459.317,-56.3747"/>
<polygon fill="black" stroke="black" points="460.41,-59.701 468.99,-53.4856 458.407,-52.9938 460.41,-59.701"/>
<text text-anchor="middle" x="413.313" y="-77.5696" font-family="Times,serif" font-size="14.00">W2</text>
</g>
<!-- 17 -->
<g id="node17" class="node"><title>17</title>
<ellipse fill="none" stroke="black" cx="525.959" cy="-128.77" rx="84.2917" ry="36.5405"/>
<polygon fill="none" stroke="black" points="475.959,-128.77 475.959,-149.77 527.959,-149.77 527.959,-128.77 475.959,-128.77"/>
<text text-anchor="start" x="478.959" y="-136.57" font-family="Times,serif" font-weight="bold" font-size="14.00">quant</text>
<polygon fill="none" stroke="black" points="527.959,-128.77 527.959,-149.77 576.959,-149.77 576.959,-128.77 527.959,-128.77"/>
<text text-anchor="start" x="530.959" y="-135.57" font-family="Times,serif" font-size="14.00">exact: 2</text>
<polygon fill="none" stroke="black" points="475.959,-107.77 475.959,-128.77 527.959,-128.77 527.959,-107.77 475.959,-107.77"/>
<text text-anchor="start" x="478.959" y="-114.57" font-family="Bukyvede" font-size="14.00">quant </text>
<polygon fill="none" stroke="black" points="527.959,-107.77 527.959,-128.77 576.959,-128.77 576.959,-107.77 527.959,-107.77"/>
<text text-anchor="start" x="530.959" y="-114.57" font-family="Times,serif" font-size="14.00">W3</text>
<polygon fill="none" stroke="black" points="474.459,-106.77 474.459,-150.77 577.459,-150.77 577.459,-106.77 474.459,-106.77"/>
</g>
<!-- 12&#45;&gt;17 -->
<g id="edge15" class="edge"><title>12&#45;&gt;17</title>
<path fill="none" stroke="black" d="M374.695,-110.128C393.704,-112.486 414.698,-115.09 434.814,-117.586"/>
<polygon fill="black" stroke="black" points="434.566,-121.082 444.921,-118.84 435.428,-114.135 434.566,-121.082"/>
<text text-anchor="middle" x="413.313" y="-120.57" font-family="Times,serif" font-size="14.00">W3</text>
</g>
<!-- 14 -->
<g id="node14" class="node"><title>14</title>
<ellipse fill="none" stroke="black" cx="747.008" cy="-36.7696" rx="79.8062" ry="36.5405"/>
<polygon fill="none" stroke="black" points="700.008,-36.7696 700.008,-57.7696 746.008,-57.7696 746.008,-36.7696 700.008,-36.7696"/>
<text text-anchor="start" x="703.008" y="-44.5696" font-family="Times,serif" font-weight="bold" font-size="14.00">reine</text>
<polygon fill="none" stroke="black" points="746.008,-36.7696 746.008,-57.7696 795.008,-57.7696 795.008,-36.7696 746.008,-36.7696"/>
<text text-anchor="start" x="749.008" y="-43.5696" font-family="Times,serif" font-size="14.00">exact: 3</text>
<polygon fill="none" stroke="black" points="700.008,-15.7696 700.008,-36.7696 746.008,-36.7696 746.008,-15.7696 700.008,-15.7696"/>
<text text-anchor="start" x="703.008" y="-22.5696" font-family="Bukyvede" font-size="14.00">reine </text>
<polygon fill="none" stroke="black" points="746.008,-15.7696 746.008,-36.7696 795.008,-36.7696 795.008,-15.7696 746.008,-15.7696"/>
<text text-anchor="start" x="749.008" y="-22.5696" font-family="Times,serif" font-size="14.00">W2</text>
<polygon fill="none" stroke="black" points="698.508,-14.7696 698.508,-58.7696 795.508,-58.7696 795.508,-14.7696 698.508,-14.7696"/>
</g>
<!-- 13&#45;&gt;14 -->
<g id="edge16" class="edge"><title>13&#45;&gt;14</title>
<path fill="none" stroke="black" d="M589.73,-36.7696C610.56,-36.7696 634.167,-36.7696 656.608,-36.7696"/>
<polygon fill="black" stroke="black" points="656.822,-40.2697 666.822,-36.7696 656.822,-33.2697 656.822,-40.2697"/>
<text text-anchor="middle" x="638.605" y="-40.5696" font-family="Times,serif" font-size="14.00">W2</text>
</g>
<!-- 14&#45;&gt;5 -->
<g id="edge17" class="edge"><title>14&#45;&gt;5</title>
<path fill="none" stroke="black" d="M827.23,-36.7696C863.586,-36.7696 907.256,-36.7696 946.55,-36.7696 946.55,-36.7696 946.55,-36.7696 1502.1,-36.7696 1541.52,-36.7696 1584.26,-45.7868 1619.65,-55.8365"/>
<polygon fill="black" stroke="black" points="1618.85,-59.2485 1629.43,-58.6918 1620.81,-52.5291 1618.85,-59.2485"/>
<text text-anchor="middle" x="1226.8" y="-40.5696" font-family="Times,serif" font-size="14.00">W2</text>
</g>
<!-- 16 -->
<g id="node16" class="node"><title>16</title>
<ellipse fill="none" stroke="black" cx="2155.89" cy="-50.7696" rx="83.3772" ry="36.5405"/>
<polygon fill="none" stroke="black" points="2105.89,-50.7696 2105.89,-71.7696 2149.89,-71.7696 2149.89,-50.7696 2105.89,-50.7696"/>
<text text-anchor="start" x="2108.89" y="-58.5696" font-family="Times,serif" font-weight="bold" font-size="14.00">Artus</text>
<polygon fill="none" stroke="black" points="2149.89,-50.7696 2149.89,-71.7696 2205.89,-71.7696 2205.89,-50.7696 2149.89,-50.7696"/>
<text text-anchor="start" x="2152.89" y="-57.5696" font-family="Times,serif" font-size="14.00">exact: 10</text>
<polygon fill="none" stroke="black" points="2105.89,-29.7696 2105.89,-50.7696 2149.89,-50.7696 2149.89,-29.7696 2105.89,-29.7696"/>
<text text-anchor="start" x="2108.89" y="-36.5696" font-family="Bukyvede" font-size="14.00">Artus</text>
<polygon fill="none" stroke="black" points="2149.89,-29.7696 2149.89,-50.7696 2205.89,-50.7696 2205.89,-29.7696 2149.89,-29.7696"/>
<text text-anchor="start" x="2152.89" y="-36.5696" font-family="Times,serif" font-size="14.00">W2, W3</text>
<polygon fill="none" stroke="black" points="2104.89,-28.7696 2104.89,-72.7696 2206.89,-72.7696 2206.89,-28.7696 2104.89,-28.7696"/>
</g>
<!-- 15&#45;&gt;16 -->
<g id="edge18" class="edge"><title>15&#45;&gt;16</title>
<path fill="none" stroke="black" d="M1986.78,-50.7696C2009.82,-50.7696 2036.51,-50.7696 2061.73,-50.7696"/>
<polygon fill="black" stroke="black" points="2062.06,-54.2696 2072.06,-50.7696 2062.06,-47.2696 2062.06,-54.2696"/>
<text text-anchor="middle" x="2029.96" y="-54.5696" font-family="Times,serif" font-size="14.00">W2, W3</text>
</g>
<!-- 16&#45;&gt;8 -->
<g id="edge19" class="edge"><title>16&#45;&gt;8</title>
<path fill="none" stroke="black" d="M2231.78,-66.4418C2260.03,-72.3536 2292.34,-79.1161 2321.36,-85.1909"/>
<polygon fill="black" stroke="black" points="2320.98,-88.6857 2331.48,-87.3085 2322.41,-81.8341 2320.98,-88.6857"/>
<text text-anchor="middle" x="2281.83" y="-85.5696" font-family="Times,serif" font-size="14.00">W2, W3</text>
</g>
<!-- 18 -->
<g id="node18" class="node"><title>18</title>
<ellipse fill="none" stroke="black" cx="747.008" cy="-128.77" rx="69.0935" ry="36.5405"/>
<polygon fill="none" stroke="black" points="707.008,-128.77 707.008,-149.77 738.008,-149.77 738.008,-128.77 707.008,-128.77"/>
<text text-anchor="start" x="710.008" y="-136.57" font-family="Times,serif" font-weight="bold" font-size="14.00">ele</text>
<polygon fill="none" stroke="black" points="738.008,-128.77 738.008,-149.77 787.008,-149.77 787.008,-128.77 738.008,-128.77"/>
<text text-anchor="start" x="741.008" y="-135.57" font-family="Times,serif" font-size="14.00">exact: 3</text>
<polygon fill="none" stroke="black" points="707.008,-107.77 707.008,-128.77 738.008,-128.77 738.008,-107.77 707.008,-107.77"/>
<text text-anchor="start" x="710.008" y="-114.57" font-family="Bukyvede" font-size="14.00">ele </text>
<polygon fill="none" stroke="black" points="738.008,-107.77 738.008,-128.77 787.008,-128.77 787.008,-107.77 738.008,-107.77"/>
<text text-anchor="start" x="741.008" y="-114.57" font-family="Times,serif" font-size="14.00">W3</text>
<polygon fill="none" stroke="black" points="706.008,-106.77 706.008,-150.77 788.008,-150.77 788.008,-106.77 706.008,-106.77"/>
</g>
<!-- 17&#45;&gt;18 -->
<g id="edge20" class="edge"><title>17&#45;&gt;18</title>
<path fill="none" stroke="black" d="M610.397,-128.77C629.065,-128.77 648.807,-128.77 667.277,-128.77"/>
<polygon fill="black" stroke="black" points="667.393,-132.27 677.393,-128.77 667.393,-125.27 667.393,-132.27"/>
<text text-anchor="middle" x="638.605" y="-132.57" font-family="Times,serif" font-size="14.00">W3</text>
</g>
<!-- 19 -->
<g id="node19" class="node"><title>19</title>
<ellipse fill="none" stroke="black" cx="947.55" cy="-128.77" rx="63.7795" ry="36.5405"/>
<polygon fill="none" stroke="black" points="911.55,-128.77 911.55,-149.77 934.55,-149.77 934.55,-128.77 911.55,-128.77"/>
<text text-anchor="start" x="914.55" y="-136.57" font-family="Times,serif" font-weight="bold" font-size="14.00">le</text>
<polygon fill="none" stroke="black" points="934.55,-128.77 934.55,-149.77 983.55,-149.77 983.55,-128.77 934.55,-128.77"/>
<text text-anchor="start" x="937.55" y="-135.57" font-family="Times,serif" font-size="14.00">exact: 4</text>
<polygon fill="none" stroke="black" points="911.55,-107.77 911.55,-128.77 934.55,-128.77 934.55,-107.77 911.55,-107.77"/>
<text text-anchor="start" x="914.55" y="-114.57" font-family="Bukyvede" font-size="14.00">le </text>
<polygon fill="none" stroke="black" points="934.55,-107.77 934.55,-128.77 983.55,-128.77 983.55,-107.77 934.55,-107.77"/>
<text text-anchor="start" x="937.55" y="-114.57" font-family="Times,serif" font-size="14.00">W3</text>
<polygon fill="none" stroke="black" points="910.55,-106.77 910.55,-150.77 984.55,-150.77 984.55,-106.77 910.55,-106.77"/>
</g>
<!-- 18&#45;&gt;19 -->
<g id="edge21" class="edge"><title>18&#45;&gt;19</title>
<path fill="none" stroke="black" d="M816.335,-128.77C834.79,-128.77 854.831,-128.77 873.533,-128.77"/>
<polygon fill="black" stroke="black" points="873.767,-132.27 883.766,-128.77 873.766,-125.27 873.767,-132.27"/>
<text text-anchor="middle" x="855.411" y="-132.57" font-family="Times,serif" font-size="14.00">W3</text>
</g>
<!-- 20 -->
<g id="node20" class="node"><title>20</title>
<ellipse fill="none" stroke="black" cx="1133.24" cy="-128.77" rx="65.1077" ry="36.5405"/>
<polygon fill="none" stroke="black" points="1096.24,-128.77 1096.24,-149.77 1121.24,-149.77 1121.24,-128.77 1096.24,-128.77"/>
<text text-anchor="start" x="1099.24" y="-136.57" font-family="Times,serif" font-weight="bold" font-size="14.00">vit</text>
<polygon fill="none" stroke="black" points="1121.24,-128.77 1121.24,-149.77 1170.24,-149.77 1170.24,-128.77 1121.24,-128.77"/>
<text text-anchor="start" x="1124.24" y="-135.57" font-family="Times,serif" font-size="14.00">exact: 5</text>
<polygon fill="none" stroke="black" points="1096.24,-107.77 1096.24,-128.77 1121.24,-128.77 1121.24,-107.77 1096.24,-107.77"/>
<text text-anchor="start" x="1099.24" y="-114.57" font-family="Bukyvede" font-size="14.00">vit</text>
<polygon fill="none" stroke="black" points="1121.24,-107.77 1121.24,-128.77 1170.24,-128.77 1170.24,-107.77 1121.24,-107.77"/>
<text text-anchor="start" x="1124.24" y="-114.57" font-family="Times,serif" font-size="14.00">W3</text>
<polygon fill="none" stroke="black" points="1095.24,-106.77 1095.24,-150.77 1171.24,-150.77 1171.24,-106.77 1095.24,-106.77"/>
</g>
<!-- 19&#45;&gt;20 -->
<g id="edge22" class="edge"><title>19&#45;&gt;20</title>
<path fill="none" stroke="black" d="M1011.25,-128.77C1026.26,-128.77 1042.42,-128.77 1057.9,-128.77"/>
<polygon fill="black" stroke="black" points="1057.95,-132.27 1067.95,-128.77 1057.95,-125.27 1057.95,-132.27"/>
<text text-anchor="middle" x="1039.69" y="-132.57" font-family="Times,serif" font-size="14.00">W3</text>
</g>
<!-- 20&#45;&gt;4 -->
<g id="edge23" class="edge"><title>20&#45;&gt;4</title>
<path fill="none" stroke="black" d="M1197.73,-133.974C1213.14,-135.237 1229.73,-136.596 1245.49,-137.889"/>
<polygon fill="black" stroke="black" points="1245.46,-141.398 1255.71,-138.726 1246.03,-134.421 1245.46,-141.398"/>
<text text-anchor="middle" x="1226.8" y="-141.57" font-family="Times,serif" font-size="14.00">W3</text>
</g>
<!-- 21&#45;&gt;5 -->
<g id="edge24" class="edge"><title>21&#45;&gt;5</title>
<path fill="none" stroke="black" d="M1555.12,-133.734C1575.17,-126.54 1598.4,-118.2 1620.19,-110.377"/>
<polygon fill="black" stroke="black" points="1621.53,-113.616 1629.76,-106.943 1619.16,-107.027 1621.53,-113.616"/>
<text text-anchor="middle" x="1592.53" y="-128.57" font-family="Times,serif" font-size="14.00">W3</text>
</g>
</g>
</svg>
