<?xml version="1.0" encoding="UTF-8" standalone="no"?>
<!DOCTYPE svg PUBLIC "-//W3C//DTD SVG 1.1//EN"
 "http://www.w3.org/Graphics/SVG/1.1/DTD/svg11.dtd">
<!-- Generated by graphviz version 2.38.0 (20140413.2041)
 -->
<!-- Title: %3 Pages: 1 -->
<svg width="6401pt" height="266pt"
 viewBox="0.00 0.00 6401.09 265.54" xmlns="http://www.w3.org/2000/svg" xmlns:xlink="http://www.w3.org/1999/xlink">
<g id="graph0" class="graph" transform="scale(1 1) rotate(0) translate(4 261.539)">
<title>%3</title>
<polygon fill="white" stroke="none" points="-4,4 -4,-261.539 6397.09,-261.539 6397.09,4 -4,4"/>
<!-- 1 -->
<g id="node1" class="node"><title>1</title>
<ellipse fill="none" stroke="black" cx="71.4178" cy="-135.77" rx="71.3357" ry="21.8409"/>
<polygon fill="none" stroke="black" points="30.4178,-124.77 30.4178,-145.77 64.4178,-145.77 64.4178,-124.77 30.4178,-124.77"/>
<text text-anchor="start" x="33.4178" y="-132.57" font-family="Times,serif" font-weight="bold" font-size="14.00">start</text>
<polygon fill="none" stroke="black" points="64.4178,-124.77 64.4178,-145.77 113.418,-145.77 113.418,-124.77 64.4178,-124.77"/>
<text text-anchor="start" x="67.4178" y="-131.57" font-family="Times,serif" font-size="14.00">exact: 0</text>
<polygon fill="none" stroke="black" points="28.9178,-124.27 28.9178,-147.27 113.918,-147.27 113.918,-124.27 28.9178,-124.27"/>
</g>
<!-- 3 -->
<g id="node3" class="node"><title>3</title>
<ellipse fill="none" stroke="black" cx="642.347" cy="-135.77" rx="103.476" ry="51.7379"/>
<polygon fill="none" stroke="black" points="578.347,-145.77 578.347,-166.77 651.347,-166.77 651.347,-145.77 578.347,-145.77"/>
<text text-anchor="start" x="581.347" y="-153.57" font-family="Times,serif" font-weight="bold" font-size="14.00">PROper_je</text>
<polygon fill="none" stroke="black" points="651.347,-145.77 651.347,-166.77 706.347,-166.77 706.347,-145.77 651.347,-145.77"/>
<text text-anchor="start" x="654.347" y="-152.57" font-family="Times,serif" font-size="14.00">exact: 2</text>
<polygon fill="none" stroke="black" points="578.347,-124.77 578.347,-145.77 651.347,-145.77 651.347,-124.77 578.347,-124.77"/>
<text text-anchor="start" x="581.347" y="-131.57" font-family="Bukyvede" font-size="14.00">ge </text>
<polygon fill="none" stroke="black" points="651.347,-124.77 651.347,-145.77 706.347,-145.77 706.347,-124.77 651.347,-124.77"/>
<text text-anchor="start" x="654.347" y="-131.57" font-family="Times,serif" font-size="14.00">W1</text>
<polygon fill="none" stroke="black" points="578.347,-103.77 578.347,-124.77 651.347,-124.77 651.347,-103.77 578.347,-103.77"/>
<text text-anchor="start" x="581.347" y="-110.57" font-family="Bukyvede" font-size="14.00">je </text>
<polygon fill="none" stroke="black" points="651.347,-103.77 651.347,-124.77 706.347,-124.77 706.347,-103.77 651.347,-103.77"/>
<text text-anchor="start" x="654.347" y="-110.57" font-family="Times,serif" font-size="14.00">W2, W3</text>
<polygon fill="none" stroke="black" points="577.347,-103.27 577.347,-168.27 707.347,-168.27 707.347,-103.27 577.347,-103.27"/>
</g>
<!-- 1&#45;&gt;3 -->
<g id="edge1" class="edge"><title>1&#45;&gt;3</title>
<path fill="none" stroke="black" d="M142.818,-137.416C169.452,-137.963 200.04,-138.501 227.836,-138.77 328.397,-139.74 353.547,-139.575 454.11,-138.77 478.254,-138.576 504.148,-138.242 528.744,-137.866"/>
<polygon fill="black" stroke="black" points="528.884,-141.365 538.828,-137.708 528.775,-134.365 528.884,-141.365"/>
<text text-anchor="middle" x="340.973" y="-143.57" font-family="Times,serif" font-size="14.00">W1</text>
</g>
<!-- 18 -->
<g id="node18" class="node"><title>18</title>
<ellipse fill="none" stroke="black" cx="340.973" cy="-77.7696" rx="113.274" ry="51.7379"/>
<polygon fill="none" stroke="black" points="269.973,-87.7696 269.973,-108.77 362.973,-108.77 362.973,-87.7696 269.973,-87.7696"/>
<text text-anchor="start" x="272.973" y="-95.5696" font-family="Times,serif" font-weight="bold" font-size="14.00">NOMpro_artu</text>
<polygon fill="none" stroke="black" points="362.973,-87.7696 362.973,-108.77 411.973,-108.77 411.973,-87.7696 362.973,-87.7696"/>
<text text-anchor="start" x="365.973" y="-94.5696" font-family="Times,serif" font-size="14.00">exact: 1</text>
<polygon fill="none" stroke="black" points="269.973,-66.7696 269.973,-87.7696 362.973,-87.7696 362.973,-66.7696 269.973,-66.7696"/>
<text text-anchor="start" x="272.973" y="-73.5696" font-family="Bukyvede" font-size="14.00">Artu </text>
<polygon fill="none" stroke="black" points="362.973,-66.7696 362.973,-87.7696 411.973,-87.7696 411.973,-66.7696 362.973,-66.7696"/>
<text text-anchor="start" x="365.973" y="-73.5696" font-family="Times,serif" font-size="14.00">W2</text>
<polygon fill="none" stroke="black" points="269.973,-45.7696 269.973,-66.7696 362.973,-66.7696 362.973,-45.7696 269.973,-45.7696"/>
<text text-anchor="start" x="272.973" y="-52.5696" font-family="Bukyvede" font-size="14.00">Artus </text>
<polygon fill="none" stroke="black" points="362.973,-45.7696 362.973,-66.7696 411.973,-66.7696 411.973,-45.7696 362.973,-45.7696"/>
<text text-anchor="start" x="365.973" y="-52.5696" font-family="Times,serif" font-size="14.00">W3</text>
<polygon fill="none" stroke="black" points="268.973,-45.2696 268.973,-110.27 412.973,-110.27 412.973,-45.2696 268.973,-45.2696"/>
</g>
<!-- 1&#45;&gt;18 -->
<g id="edge2" class="edge"><title>1&#45;&gt;18</title>
<path fill="none" stroke="black" d="M130.144,-123.256C158.877,-117.027 194.618,-109.279 228.414,-101.953"/>
<polygon fill="black" stroke="black" points="229.325,-105.337 238.356,-99.7977 227.842,-98.4958 229.325,-105.337"/>
<text text-anchor="middle" x="185.336" y="-119.57" font-family="Times,serif" font-size="14.00">W2, W3</text>
</g>
<!-- 2 -->
<g id="node2" class="node"><title>2</title>
<ellipse fill="none" stroke="black" cx="6320.96" cy="-148.77" rx="72.25" ry="21.8409"/>
<polygon fill="none" stroke="black" points="6278.96,-137.77 6278.96,-158.77 6306.96,-158.77 6306.96,-137.77 6278.96,-137.77"/>
<text text-anchor="start" x="6281.96" y="-145.57" font-family="Times,serif" font-weight="bold" font-size="14.00">end</text>
<polygon fill="none" stroke="black" points="6306.96,-137.77 6306.96,-158.77 6362.96,-158.77 6362.96,-137.77 6306.96,-137.77"/>
<text text-anchor="start" x="6309.96" y="-144.57" font-family="Times,serif" font-size="14.00">exact: 18</text>
<polygon fill="none" stroke="black" points="6277.96,-137.27 6277.96,-160.27 6363.96,-160.27 6363.96,-137.27 6277.96,-137.27"/>
</g>
<!-- 4 -->
<g id="node4" class="node"><title>4</title>
<ellipse fill="none" stroke="black" cx="980.621" cy="-135.77" rx="123.073" ry="36.5405"/>
<polygon fill="none" stroke="black" points="902.621,-135.77 902.621,-156.77 976.621,-156.77 976.621,-135.77 902.621,-135.77"/>
<text text-anchor="start" x="905.621" y="-143.57" font-family="Times,serif" font-weight="bold" font-size="14.00">PROper_tu</text>
<polygon fill="none" stroke="black" points="976.621,-135.77 976.621,-156.77 1058.62,-156.77 1058.62,-135.77 976.621,-135.77"/>
<text text-anchor="start" x="979.621" y="-142.57" font-family="Times,serif" font-size="14.00">exact: 3</text>
<polygon fill="none" stroke="black" points="902.621,-114.77 902.621,-135.77 976.621,-135.77 976.621,-114.77 902.621,-114.77"/>
<text text-anchor="start" x="905.621" y="-121.57" font-family="Bukyvede" font-size="14.00">te </text>
<polygon fill="none" stroke="black" points="976.621,-114.77 976.621,-135.77 1058.62,-135.77 1058.62,-114.77 976.621,-114.77"/>
<text text-anchor="start" x="979.621" y="-121.57" font-family="Times,serif" font-size="14.00">W1, W2, W3</text>
<polygon fill="none" stroke="black" points="901.621,-113.77 901.621,-157.77 1059.62,-157.77 1059.62,-113.77 901.621,-113.77"/>
</g>
<!-- 3&#45;&gt;4 -->
<g id="edge3" class="edge"><title>3&#45;&gt;4</title>
<path fill="none" stroke="black" d="M745.61,-135.77C777.569,-135.77 813.299,-135.77 847.029,-135.77"/>
<polygon fill="black" stroke="black" points="847.426,-139.27 857.426,-135.77 847.426,-132.27 847.426,-139.27"/>
<text text-anchor="middle" x="801.585" y="-139.57" font-family="Times,serif" font-size="14.00">W1, W2, W3</text>
</g>
<!-- 5 -->
<g id="node5" class="node"><title>5</title>
<ellipse fill="none" stroke="black" cx="1365.56" cy="-135.77" rx="149.813" ry="36.5405"/>
<polygon fill="none" stroke="black" points="1268.56,-135.77 1268.56,-156.77 1380.56,-156.77 1380.56,-135.77 1268.56,-135.77"/>
<text text-anchor="start" x="1271.56" y="-143.57" font-family="Times,serif" font-weight="bold" font-size="14.00">VERcjg_conoistre</text>
<polygon fill="none" stroke="black" points="1380.56,-135.77 1380.56,-156.77 1462.56,-156.77 1462.56,-135.77 1380.56,-135.77"/>
<text text-anchor="start" x="1383.56" y="-142.57" font-family="Times,serif" font-size="14.00">exact: 4</text>
<polygon fill="none" stroke="black" points="1268.56,-114.77 1268.56,-135.77 1380.56,-135.77 1380.56,-114.77 1268.56,-114.77"/>
<text text-anchor="start" x="1271.56" y="-121.57" font-family="Bukyvede" font-size="14.00">conois </text>
<polygon fill="none" stroke="black" points="1380.56,-114.77 1380.56,-135.77 1462.56,-135.77 1462.56,-114.77 1380.56,-114.77"/>
<text text-anchor="start" x="1383.56" y="-121.57" font-family="Times,serif" font-size="14.00">W1, W2, W3</text>
<polygon fill="none" stroke="black" points="1267.56,-113.77 1267.56,-157.77 1463.56,-157.77 1463.56,-113.77 1267.56,-113.77"/>
</g>
<!-- 4&#45;&gt;5 -->
<g id="edge4" class="edge"><title>4&#45;&gt;5</title>
<path fill="none" stroke="black" d="M1103.84,-135.77C1135.98,-135.77 1171.12,-135.77 1204.9,-135.77"/>
<polygon fill="black" stroke="black" points="1205.34,-139.27 1215.34,-135.77 1205.34,-132.27 1205.34,-139.27"/>
<text text-anchor="middle" x="1159.66" y="-139.57" font-family="Times,serif" font-size="14.00">W1, W2, W3</text>
</g>
<!-- 6 -->
<g id="node6" class="node"><title>6</title>
<ellipse fill="none" stroke="black" cx="1973.13" cy="-128.77" rx="115.931" ry="66.4361"/>
<polygon fill="none" stroke="black" points="1900.13,-149.77 1900.13,-170.77 1997.13,-170.77 1997.13,-149.77 1900.13,-149.77"/>
<text text-anchor="start" x="1903.13" y="-157.57" font-family="Times,serif" font-weight="bold" font-size="14.00">ADVgen_mieus</text>
<polygon fill="none" stroke="black" points="1997.13,-149.77 1997.13,-170.77 2046.13,-170.77 2046.13,-149.77 1997.13,-149.77"/>
<text text-anchor="start" x="2000.13" y="-156.57" font-family="Times,serif" font-size="14.00">exact: 6</text>
<polygon fill="none" stroke="black" points="1900.13,-128.77 1900.13,-149.77 1997.13,-149.77 1997.13,-128.77 1900.13,-128.77"/>
<text text-anchor="start" x="1903.13" y="-135.57" font-family="Bukyvede" font-size="14.00">miaus </text>
<polygon fill="none" stroke="black" points="1997.13,-128.77 1997.13,-149.77 2046.13,-149.77 2046.13,-128.77 1997.13,-128.77"/>
<text text-anchor="start" x="2000.13" y="-135.57" font-family="Times,serif" font-size="14.00">W3</text>
<polygon fill="none" stroke="black" points="1900.13,-107.77 1900.13,-128.77 1997.13,-128.77 1997.13,-107.77 1900.13,-107.77"/>
<text text-anchor="start" x="1903.13" y="-114.57" font-family="Bukyvede" font-size="14.00">miels </text>
<polygon fill="none" stroke="black" points="1997.13,-107.77 1997.13,-128.77 2046.13,-128.77 2046.13,-107.77 1997.13,-107.77"/>
<text text-anchor="start" x="2000.13" y="-114.57" font-family="Times,serif" font-size="14.00">W2</text>
<polygon fill="none" stroke="black" points="1900.13,-86.7696 1900.13,-107.77 1997.13,-107.77 1997.13,-86.7696 1900.13,-86.7696"/>
<text text-anchor="start" x="1903.13" y="-93.5696" font-family="Bukyvede" font-size="14.00">mielz </text>
<polygon fill="none" stroke="black" points="1997.13,-86.7696 1997.13,-107.77 2046.13,-107.77 2046.13,-86.7696 1997.13,-86.7696"/>
<text text-anchor="start" x="2000.13" y="-93.5696" font-family="Times,serif" font-size="14.00">W1</text>
<polygon fill="none" stroke="black" points="1899.13,-85.7696 1899.13,-171.77 2047.13,-171.77 2047.13,-85.7696 1899.13,-85.7696"/>
</g>
<!-- 5&#45;&gt;6 -->
<g id="edge5" class="edge"><title>5&#45;&gt;6</title>
<path fill="none" stroke="black" d="M1515.48,-134.048C1617.28,-132.871 1750.7,-131.329 1847.01,-130.216"/>
<polygon fill="black" stroke="black" points="1847.13,-133.715 1857.09,-130.099 1847.05,-126.715 1847.13,-133.715"/>
<text text-anchor="middle" x="1686.32" y="-137.57" font-family="Times,serif" font-size="14.00">W1, W2</text>
</g>
<!-- 21 -->
<g id="node21" class="node"><title>21</title>
<ellipse fill="none" stroke="black" cx="1686.32" cy="-81.7696" rx="113.689" ry="36.5405"/>
<polygon fill="none" stroke="black" points="1615.32,-81.7696 1615.32,-102.77 1709.32,-102.77 1709.32,-81.7696 1615.32,-81.7696"/>
<text text-anchor="start" x="1618.32" y="-89.5696" font-family="Times,serif" font-weight="bold" font-size="14.00">ADVgen_mout</text>
<polygon fill="none" stroke="black" points="1709.32,-81.7696 1709.32,-102.77 1758.32,-102.77 1758.32,-81.7696 1709.32,-81.7696"/>
<text text-anchor="start" x="1712.32" y="-88.5696" font-family="Times,serif" font-size="14.00">exact: 5</text>
<polygon fill="none" stroke="black" points="1615.32,-60.7696 1615.32,-81.7696 1709.32,-81.7696 1709.32,-60.7696 1615.32,-60.7696"/>
<text text-anchor="start" x="1618.32" y="-67.5696" font-family="Bukyvede" font-size="14.00">mult </text>
<polygon fill="none" stroke="black" points="1709.32,-60.7696 1709.32,-81.7696 1758.32,-81.7696 1758.32,-60.7696 1709.32,-60.7696"/>
<text text-anchor="start" x="1712.32" y="-67.5696" font-family="Times,serif" font-size="14.00">W3</text>
<polygon fill="none" stroke="black" points="1613.82,-59.7696 1613.82,-103.77 1758.82,-103.77 1758.82,-59.7696 1613.82,-59.7696"/>
</g>
<!-- 5&#45;&gt;21 -->
<g id="edge6" class="edge"><title>5&#45;&gt;21</title>
<path fill="none" stroke="black" d="M1489.35,-114.969C1517.54,-110.193 1547.35,-105.143 1574.98,-100.462"/>
<polygon fill="black" stroke="black" points="1575.78,-103.877 1585.05,-98.7554 1574.61,-96.975 1575.78,-103.877"/>
<text text-anchor="middle" x="1543.97" y="-111.57" font-family="Times,serif" font-size="14.00">W3</text>
</g>
<!-- 7 -->
<g id="node7" class="node"><title>7</title>
<ellipse fill="none" stroke="black" cx="2331.91" cy="-128.77" rx="130.63" ry="36.5405"/>
<polygon fill="none" stroke="black" points="2248.91,-128.77 2248.91,-149.77 2333.91,-149.77 2333.91,-128.77 2248.91,-128.77"/>
<text text-anchor="start" x="2251.91" y="-136.57" font-family="Times,serif" font-weight="bold" font-size="14.00">CONsub_que</text>
<polygon fill="none" stroke="black" points="2333.91,-128.77 2333.91,-149.77 2415.91,-149.77 2415.91,-128.77 2333.91,-128.77"/>
<text text-anchor="start" x="2336.91" y="-135.57" font-family="Times,serif" font-size="14.00">exact: 7</text>
<polygon fill="none" stroke="black" points="2248.91,-107.77 2248.91,-128.77 2333.91,-128.77 2333.91,-107.77 2248.91,-107.77"/>
<text text-anchor="start" x="2251.91" y="-114.57" font-family="Bukyvede" font-size="14.00">que </text>
<polygon fill="none" stroke="black" points="2333.91,-107.77 2333.91,-128.77 2415.91,-128.77 2415.91,-107.77 2333.91,-107.77"/>
<text text-anchor="start" x="2336.91" y="-114.57" font-family="Times,serif" font-size="14.00">W1, W2, W3</text>
<polygon fill="none" stroke="black" points="2247.41,-106.77 2247.41,-150.77 2416.41,-150.77 2416.41,-106.77 2247.41,-106.77"/>
</g>
<!-- 6&#45;&gt;7 -->
<g id="edge7" class="edge"><title>6&#45;&gt;7</title>
<path fill="none" stroke="black" d="M2089.47,-128.77C2121.66,-128.77 2157.01,-128.77 2190.48,-128.77"/>
<polygon fill="black" stroke="black" points="2190.8,-132.27 2200.8,-128.77 2190.8,-125.27 2190.8,-132.27"/>
<text text-anchor="middle" x="2145.09" y="-132.57" font-family="Times,serif" font-size="14.00">W1, W2, W3</text>
</g>
<!-- 8 -->
<g id="node8" class="node"><title>8</title>
<ellipse fill="none" stroke="black" cx="2697.76" cy="-128.77" rx="123.073" ry="36.5405"/>
<polygon fill="none" stroke="black" points="2619.76,-128.77 2619.76,-149.77 2693.76,-149.77 2693.76,-128.77 2619.76,-128.77"/>
<text text-anchor="start" x="2622.76" y="-136.57" font-family="Times,serif" font-weight="bold" font-size="14.00">PROper_tu</text>
<polygon fill="none" stroke="black" points="2693.76,-128.77 2693.76,-149.77 2775.76,-149.77 2775.76,-128.77 2693.76,-128.77"/>
<text text-anchor="start" x="2696.76" y="-135.57" font-family="Times,serif" font-size="14.00">exact: 8</text>
<polygon fill="none" stroke="black" points="2619.76,-107.77 2619.76,-128.77 2693.76,-128.77 2693.76,-107.77 2619.76,-107.77"/>
<text text-anchor="start" x="2622.76" y="-114.57" font-family="Bukyvede" font-size="14.00">tu </text>
<polygon fill="none" stroke="black" points="2693.76,-107.77 2693.76,-128.77 2775.76,-128.77 2775.76,-107.77 2693.76,-107.77"/>
<text text-anchor="start" x="2696.76" y="-114.57" font-family="Times,serif" font-size="14.00">W1, W2, W3</text>
<polygon fill="none" stroke="black" points="2618.76,-106.77 2618.76,-150.77 2776.76,-150.77 2776.76,-106.77 2618.76,-106.77"/>
</g>
<!-- 7&#45;&gt;8 -->
<g id="edge8" class="edge"><title>7&#45;&gt;8</title>
<path fill="none" stroke="black" d="M2462.72,-128.77C2495.74,-128.77 2531.25,-128.77 2564.39,-128.77"/>
<polygon fill="black" stroke="black" points="2564.59,-132.27 2574.59,-128.77 2564.59,-125.27 2564.59,-132.27"/>
<text text-anchor="middle" x="2518.72" y="-132.57" font-family="Times,serif" font-size="14.00">W1, W2, W3</text>
</g>
<!-- 9 -->
<g id="node9" class="node"><title>9</title>
<ellipse fill="none" stroke="black" cx="3057.24" cy="-128.77" rx="124.402" ry="36.5405"/>
<polygon fill="none" stroke="black" points="2978.24,-128.77 2978.24,-149.77 3054.24,-149.77 3054.24,-128.77 2978.24,-128.77"/>
<text text-anchor="start" x="2981.24" y="-136.57" font-family="Times,serif" font-weight="bold" font-size="14.00">ADVneg_en</text>
<polygon fill="none" stroke="black" points="3054.24,-128.77 3054.24,-149.77 3136.24,-149.77 3136.24,-128.77 3054.24,-128.77"/>
<text text-anchor="start" x="3057.24" y="-135.57" font-family="Times,serif" font-size="14.00">exact: 9</text>
<polygon fill="none" stroke="black" points="2978.24,-107.77 2978.24,-128.77 3054.24,-128.77 3054.24,-107.77 2978.24,-107.77"/>
<text text-anchor="start" x="2981.24" y="-114.57" font-family="Bukyvede" font-size="14.00">ne </text>
<polygon fill="none" stroke="black" points="3054.24,-107.77 3054.24,-128.77 3136.24,-128.77 3136.24,-107.77 3054.24,-107.77"/>
<text text-anchor="start" x="3057.24" y="-114.57" font-family="Times,serif" font-size="14.00">W1, W2, W3</text>
<polygon fill="none" stroke="black" points="2977.24,-106.77 2977.24,-150.77 3137.24,-150.77 3137.24,-106.77 2977.24,-106.77"/>
</g>
<!-- 8&#45;&gt;9 -->
<g id="edge9" class="edge"><title>8&#45;&gt;9</title>
<path fill="none" stroke="black" d="M2821.28,-128.77C2853.89,-128.77 2889.27,-128.77 2922.44,-128.77"/>
<polygon fill="black" stroke="black" points="2922.66,-132.27 2932.66,-128.77 2922.66,-125.27 2922.66,-132.27"/>
<text text-anchor="middle" x="2876.79" y="-132.57" font-family="Times,serif" font-size="14.00">W1, W2, W3</text>
</g>
<!-- 10 -->
<g id="node10" class="node"><title>10</title>
<ellipse fill="none" stroke="black" cx="3393.55" cy="-220.77" rx="131.544" ry="36.5405"/>
<polygon fill="none" stroke="black" points="3309.55,-220.77 3309.55,-241.77 3421.55,-241.77 3421.55,-220.77 3309.55,-220.77"/>
<text text-anchor="start" x="3312.55" y="-228.57" font-family="Times,serif" font-weight="bold" font-size="14.00">VERcjg_conoistre</text>
<polygon fill="none" stroke="black" points="3421.55,-220.77 3421.55,-241.77 3477.55,-241.77 3477.55,-220.77 3421.55,-220.77"/>
<text text-anchor="start" x="3424.55" y="-227.57" font-family="Times,serif" font-size="14.00">exact: 10</text>
<polygon fill="none" stroke="black" points="3309.55,-199.77 3309.55,-220.77 3421.55,-220.77 3421.55,-199.77 3309.55,-199.77"/>
<text text-anchor="start" x="3312.55" y="-206.57" font-family="Bukyvede" font-size="14.00">conois </text>
<polygon fill="none" stroke="black" points="3421.55,-199.77 3421.55,-220.77 3477.55,-220.77 3477.55,-199.77 3421.55,-199.77"/>
<text text-anchor="start" x="3424.55" y="-206.57" font-family="Times,serif" font-size="14.00">W1</text>
<polygon fill="none" stroke="black" points="3308.55,-198.77 3308.55,-242.77 3478.55,-242.77 3478.55,-198.77 3308.55,-198.77"/>
</g>
<!-- 9&#45;&gt;10 -->
<g id="edge10" class="edge"><title>9&#45;&gt;10</title>
<path fill="none" stroke="black" d="M3149.15,-153.787C3192.48,-165.709 3244.49,-180.025 3289.3,-192.355"/>
<polygon fill="black" stroke="black" points="3288.47,-195.757 3299.04,-195.036 3290.33,-189.008 3288.47,-195.757"/>
<text text-anchor="middle" x="3210.2" y="-175.57" font-family="Times,serif" font-size="14.00">W1</text>
</g>
<!-- 19 -->
<g id="node19" class="node"><title>19</title>
<ellipse fill="none" stroke="black" cx="3393.55" cy="-128.77" rx="133.787" ry="36.5405"/>
<polygon fill="none" stroke="black" points="3308.55,-128.77 3308.55,-149.77 3423.55,-149.77 3423.55,-128.77 3308.55,-128.77"/>
<text text-anchor="start" x="3311.55" y="-136.57" font-family="Times,serif" font-weight="bold" font-size="14.00">VERcjg_faire|feire</text>
<polygon fill="none" stroke="black" points="3423.55,-128.77 3423.55,-149.77 3479.55,-149.77 3479.55,-128.77 3423.55,-128.77"/>
<text text-anchor="start" x="3426.55" y="-135.57" font-family="Times,serif" font-size="14.00">exact: 10</text>
<polygon fill="none" stroke="black" points="3308.55,-107.77 3308.55,-128.77 3423.55,-128.77 3423.55,-107.77 3308.55,-107.77"/>
<text text-anchor="start" x="3311.55" y="-114.57" font-family="Bukyvede" font-size="14.00">fes </text>
<polygon fill="none" stroke="black" points="3423.55,-107.77 3423.55,-128.77 3479.55,-128.77 3479.55,-107.77 3423.55,-107.77"/>
<text text-anchor="start" x="3426.55" y="-114.57" font-family="Times,serif" font-size="14.00">W2</text>
<polygon fill="none" stroke="black" points="3307.05,-106.77 3307.05,-150.77 3480.05,-150.77 3480.05,-106.77 3307.05,-106.77"/>
</g>
<!-- 9&#45;&gt;19 -->
<g id="edge11" class="edge"><title>9&#45;&gt;19</title>
<path fill="none" stroke="black" d="M3181.78,-128.77C3203.79,-128.77 3226.9,-128.77 3249.41,-128.77"/>
<polygon fill="black" stroke="black" points="3249.7,-132.27 3259.7,-128.77 3249.7,-125.27 3249.7,-132.27"/>
<text text-anchor="middle" x="3210.2" y="-132.57" font-family="Times,serif" font-size="14.00">W2</text>
</g>
<!-- 22 -->
<g id="node22" class="node"><title>22</title>
<ellipse fill="none" stroke="black" cx="3393.55" cy="-36.7696" rx="154.713" ry="36.5405"/>
<polygon fill="none" stroke="black" points="3293.55,-36.7696 3293.55,-57.7696 3438.55,-57.7696 3438.55,-36.7696 3293.55,-36.7696"/>
<text text-anchor="start" x="3296.55" y="-44.5696" font-family="Times,serif" font-weight="bold" font-size="14.00">VERcjg_faire|fare|farre</text>
<polygon fill="none" stroke="black" points="3438.55,-36.7696 3438.55,-57.7696 3494.55,-57.7696 3494.55,-36.7696 3438.55,-36.7696"/>
<text text-anchor="start" x="3441.55" y="-43.5696" font-family="Times,serif" font-size="14.00">exact: 10</text>
<polygon fill="none" stroke="black" points="3293.55,-15.7696 3293.55,-36.7696 3438.55,-36.7696 3438.55,-15.7696 3293.55,-15.7696"/>
<text text-anchor="start" x="3296.55" y="-22.5696" font-family="Bukyvede" font-size="14.00">fas </text>
<polygon fill="none" stroke="black" points="3438.55,-15.7696 3438.55,-36.7696 3494.55,-36.7696 3494.55,-15.7696 3438.55,-15.7696"/>
<text text-anchor="start" x="3441.55" y="-22.5696" font-family="Times,serif" font-size="14.00">W3</text>
<polygon fill="none" stroke="black" points="3292.05,-14.7696 3292.05,-58.7696 3495.05,-58.7696 3495.05,-14.7696 3292.05,-14.7696"/>
</g>
<!-- 9&#45;&gt;22 -->
<g id="edge12" class="edge"><title>9&#45;&gt;22</title>
<path fill="none" stroke="black" d="M3149.15,-103.752C3190.14,-92.473 3238.9,-79.0526 3281.99,-67.1969"/>
<polygon fill="black" stroke="black" points="3282.94,-70.5633 3291.66,-64.5354 3281.09,-63.8142 3282.94,-70.5633"/>
<text text-anchor="middle" x="3210.2" y="-92.5696" font-family="Times,serif" font-size="14.00">W3</text>
</g>
<!-- 11 -->
<g id="node11" class="node"><title>11</title>
<ellipse fill="none" stroke="black" cx="3745.41" cy="-128.77" rx="140.014" ry="36.5405"/>
<polygon fill="none" stroke="black" points="3655.41,-128.77 3655.41,-149.77 3753.41,-149.77 3753.41,-128.77 3655.41,-128.77"/>
<text text-anchor="start" x="3658.41" y="-136.57" font-family="Times,serif" font-weight="bold" font-size="14.00">PROper_je|moi</text>
<polygon fill="none" stroke="black" points="3753.41,-128.77 3753.41,-149.77 3835.41,-149.77 3835.41,-128.77 3753.41,-128.77"/>
<text text-anchor="start" x="3756.41" y="-135.57" font-family="Times,serif" font-size="14.00">exact: 11</text>
<polygon fill="none" stroke="black" points="3655.41,-107.77 3655.41,-128.77 3753.41,-128.77 3753.41,-107.77 3655.41,-107.77"/>
<text text-anchor="start" x="3658.41" y="-114.57" font-family="Bukyvede" font-size="14.00">moi </text>
<polygon fill="none" stroke="black" points="3753.41,-107.77 3753.41,-128.77 3835.41,-128.77 3835.41,-107.77 3753.41,-107.77"/>
<text text-anchor="start" x="3756.41" y="-114.57" font-family="Times,serif" font-size="14.00">W1, W2, W3</text>
<polygon fill="none" stroke="black" points="3654.41,-106.77 3654.41,-150.77 3836.41,-150.77 3836.41,-106.77 3654.41,-106.77"/>
</g>
<!-- 10&#45;&gt;11 -->
<g id="edge13" class="edge"><title>10&#45;&gt;11</title>
<path fill="none" stroke="black" d="M3490.15,-195.63C3535.3,-183.759 3589.38,-169.537 3636.04,-157.267"/>
<polygon fill="black" stroke="black" points="3637.1,-160.608 3645.88,-154.68 3635.32,-153.838 3637.1,-160.608"/>
<text text-anchor="middle" x="3576.91" y="-178.57" font-family="Times,serif" font-size="14.00">W1</text>
</g>
<!-- 12 -->
<g id="node12" class="node"><title>12</title>
<ellipse fill="none" stroke="black" cx="4120.46" cy="-128.77" rx="123.073" ry="36.5405"/>
<polygon fill="none" stroke="black" points="4042.46,-128.77 4042.46,-149.77 4116.46,-149.77 4116.46,-128.77 4042.46,-128.77"/>
<text text-anchor="start" x="4045.46" y="-136.57" font-family="Times,serif" font-weight="bold" font-size="14.00">CONcoo_et</text>
<polygon fill="none" stroke="black" points="4116.46,-128.77 4116.46,-149.77 4198.46,-149.77 4198.46,-128.77 4116.46,-128.77"/>
<text text-anchor="start" x="4119.46" y="-135.57" font-family="Times,serif" font-size="14.00">exact: 12</text>
<polygon fill="none" stroke="black" points="4042.46,-107.77 4042.46,-128.77 4116.46,-128.77 4116.46,-107.77 4042.46,-107.77"/>
<text text-anchor="start" x="4045.46" y="-114.57" font-family="Bukyvede" font-size="14.00">et </text>
<polygon fill="none" stroke="black" points="4116.46,-107.77 4116.46,-128.77 4198.46,-128.77 4198.46,-107.77 4116.46,-107.77"/>
<text text-anchor="start" x="4119.46" y="-114.57" font-family="Times,serif" font-size="14.00">W1, W2, W3</text>
<polygon fill="none" stroke="black" points="4041.46,-106.77 4041.46,-150.77 4199.46,-150.77 4199.46,-106.77 4041.46,-106.77"/>
</g>
<!-- 11&#45;&gt;12 -->
<g id="edge14" class="edge"><title>11&#45;&gt;12</title>
<path fill="none" stroke="black" d="M3885.59,-128.77C3918.8,-128.77 3954.16,-128.77 3987.05,-128.77"/>
<polygon fill="black" stroke="black" points="3987.18,-132.27 3997.18,-128.77 3987.18,-125.27 3987.18,-132.27"/>
<text text-anchor="middle" x="3941.42" y="-132.57" font-family="Times,serif" font-size="14.00">W1, W2, W3</text>
</g>
<!-- 13 -->
<g id="node13" class="node"><title>13</title>
<ellipse fill="none" stroke="black" cx="4511.77" cy="-128.77" rx="156.042" ry="36.5405"/>
<polygon fill="none" stroke="black" points="4410.77,-128.77 4410.77,-149.77 4531.77,-149.77 4531.77,-128.77 4410.77,-128.77"/>
<text text-anchor="start" x="4413.77" y="-136.57" font-family="Times,serif" font-weight="bold" font-size="14.00">ADVgen_neporcant</text>
<polygon fill="none" stroke="black" points="4531.77,-128.77 4531.77,-149.77 4613.77,-149.77 4613.77,-128.77 4531.77,-128.77"/>
<text text-anchor="start" x="4534.77" y="-135.57" font-family="Times,serif" font-size="14.00">exact: 13</text>
<polygon fill="none" stroke="black" points="4410.77,-107.77 4410.77,-128.77 4531.77,-128.77 4531.77,-107.77 4410.77,-107.77"/>
<text text-anchor="start" x="4413.77" y="-114.57" font-family="Bukyvede" font-size="14.00">neporquant </text>
<polygon fill="none" stroke="black" points="4531.77,-107.77 4531.77,-128.77 4613.77,-128.77 4613.77,-107.77 4531.77,-107.77"/>
<text text-anchor="start" x="4534.77" y="-114.57" font-family="Times,serif" font-size="14.00">W1, W2, W3</text>
<polygon fill="none" stroke="black" points="4409.27,-106.77 4409.27,-150.77 4614.27,-150.77 4614.27,-106.77 4409.27,-106.77"/>
</g>
<!-- 12&#45;&gt;13 -->
<g id="edge15" class="edge"><title>12&#45;&gt;13</title>
<path fill="none" stroke="black" d="M4243.57,-128.77C4275.84,-128.77 4311.21,-128.77 4345.36,-128.77"/>
<polygon fill="black" stroke="black" points="4345.43,-132.27 4355.43,-128.77 4345.43,-125.27 4345.43,-132.27"/>
<text text-anchor="middle" x="4299.5" y="-132.57" font-family="Times,serif" font-size="14.00">W1, W2, W3</text>
</g>
<!-- 14 -->
<g id="node14" class="node"><title>14</title>
<ellipse fill="none" stroke="black" cx="4903.07" cy="-128.77" rx="123.073" ry="36.5405"/>
<polygon fill="none" stroke="black" points="4825.07,-128.77 4825.07,-149.77 4899.07,-149.77 4899.07,-128.77 4825.07,-128.77"/>
<text text-anchor="start" x="4828.07" y="-136.57" font-family="Times,serif" font-weight="bold" font-size="14.00">PROper_tu</text>
<polygon fill="none" stroke="black" points="4899.07,-128.77 4899.07,-149.77 4981.07,-149.77 4981.07,-128.77 4899.07,-128.77"/>
<text text-anchor="start" x="4902.07" y="-135.57" font-family="Times,serif" font-size="14.00">exact: 14</text>
<polygon fill="none" stroke="black" points="4825.07,-107.77 4825.07,-128.77 4899.07,-128.77 4899.07,-107.77 4825.07,-107.77"/>
<text text-anchor="start" x="4828.07" y="-114.57" font-family="Bukyvede" font-size="14.00">tu </text>
<polygon fill="none" stroke="black" points="4899.07,-107.77 4899.07,-128.77 4981.07,-128.77 4981.07,-107.77 4899.07,-107.77"/>
<text text-anchor="start" x="4902.07" y="-114.57" font-family="Times,serif" font-size="14.00">W1, W2, W3</text>
<polygon fill="none" stroke="black" points="4824.07,-106.77 4824.07,-150.77 4982.07,-150.77 4982.07,-106.77 4824.07,-106.77"/>
</g>
<!-- 13&#45;&gt;14 -->
<g id="edge16" class="edge"><title>13&#45;&gt;14</title>
<path fill="none" stroke="black" d="M4668.31,-128.77C4701.9,-128.77 4737.11,-128.77 4769.71,-128.77"/>
<polygon fill="black" stroke="black" points="4769.74,-132.27 4779.74,-128.77 4769.74,-125.27 4769.74,-132.27"/>
<text text-anchor="middle" x="4724.04" y="-132.57" font-family="Times,serif" font-size="14.00">W1, W2, W3</text>
</g>
<!-- 15 -->
<g id="node15" class="node"><title>15</title>
<ellipse fill="none" stroke="black" cx="5278.12" cy="-128.77" rx="140.014" ry="36.5405"/>
<polygon fill="none" stroke="black" points="5188.12,-128.77 5188.12,-149.77 5286.12,-149.77 5286.12,-128.77 5188.12,-128.77"/>
<text text-anchor="start" x="5191.12" y="-136.57" font-family="Times,serif" font-weight="bold" font-size="14.00">PROper_je|moi</text>
<polygon fill="none" stroke="black" points="5286.12,-128.77 5286.12,-149.77 5368.12,-149.77 5368.12,-128.77 5286.12,-128.77"/>
<text text-anchor="start" x="5289.12" y="-135.57" font-family="Times,serif" font-size="14.00">exact: 15</text>
<polygon fill="none" stroke="black" points="5188.12,-107.77 5188.12,-128.77 5286.12,-128.77 5286.12,-107.77 5188.12,-107.77"/>
<text text-anchor="start" x="5191.12" y="-114.57" font-family="Bukyvede" font-size="14.00">me </text>
<polygon fill="none" stroke="black" points="5286.12,-107.77 5286.12,-128.77 5368.12,-128.77 5368.12,-107.77 5286.12,-107.77"/>
<text text-anchor="start" x="5289.12" y="-114.57" font-family="Times,serif" font-size="14.00">W1, W2, W3</text>
<polygon fill="none" stroke="black" points="5187.12,-106.77 5187.12,-150.77 5369.12,-150.77 5369.12,-106.77 5187.12,-106.77"/>
</g>
<!-- 14&#45;&gt;15 -->
<g id="edge17" class="edge"><title>14&#45;&gt;15</title>
<path fill="none" stroke="black" d="M5026.22,-128.77C5058.57,-128.77 5093.87,-128.77 5127.5,-128.77"/>
<polygon fill="black" stroke="black" points="5127.88,-132.27 5137.88,-128.77 5127.88,-125.27 5127.88,-132.27"/>
<text text-anchor="middle" x="5082.11" y="-132.57" font-family="Times,serif" font-size="14.00">W1, W2, W3</text>
</g>
<!-- 16 -->
<g id="node16" class="node"><title>16</title>
<ellipse fill="none" stroke="black" cx="5683.57" cy="-128.77" rx="153.384" ry="36.5405"/>
<polygon fill="none" stroke="black" points="5584.57,-128.77 5584.57,-149.77 5701.57,-149.77 5701.57,-128.77 5584.57,-128.77"/>
<text text-anchor="start" x="5587.57" y="-136.57" font-family="Times,serif" font-weight="bold" font-size="14.00">VERcjg_connaotre</text>
<polygon fill="none" stroke="black" points="5701.57,-128.77 5701.57,-149.77 5783.57,-149.77 5783.57,-128.77 5701.57,-128.77"/>
<text text-anchor="start" x="5704.57" y="-135.57" font-family="Times,serif" font-size="14.00">exact: 16</text>
<polygon fill="none" stroke="black" points="5584.57,-107.77 5584.57,-128.77 5701.57,-128.77 5701.57,-107.77 5584.57,-107.77"/>
<text text-anchor="start" x="5587.57" y="-114.57" font-family="Bukyvede" font-size="14.00">conoistras </text>
<polygon fill="none" stroke="black" points="5701.57,-107.77 5701.57,-128.77 5783.57,-128.77 5783.57,-107.77 5701.57,-107.77"/>
<text text-anchor="start" x="5704.57" y="-114.57" font-family="Times,serif" font-size="14.00">W1, W2, W3</text>
<polygon fill="none" stroke="black" points="5583.07,-106.77 5583.07,-150.77 5784.07,-150.77 5784.07,-106.77 5583.07,-106.77"/>
</g>
<!-- 15&#45;&gt;16 -->
<g id="edge18" class="edge"><title>15&#45;&gt;16</title>
<path fill="none" stroke="black" d="M5418.24,-128.77C5450.87,-128.77 5485.92,-128.77 5519.49,-128.77"/>
<polygon fill="black" stroke="black" points="5519.85,-132.27 5529.85,-128.77 5519.85,-125.27 5519.85,-132.27"/>
<text text-anchor="middle" x="5474.12" y="-132.57" font-family="Times,serif" font-size="14.00">W1, W2, W3</text>
</g>
<!-- 17 -->
<g id="node17" class="node"><title>17</title>
<ellipse fill="none" stroke="black" cx="6042.92" cy="-188.77" rx="114.603" ry="36.5405"/>
<polygon fill="none" stroke="black" points="5970.92,-188.77 5970.92,-209.77 6058.92,-209.77 6058.92,-188.77 5970.92,-188.77"/>
<text text-anchor="start" x="5973.92" y="-196.57" font-family="Times,serif" font-weight="bold" font-size="14.00">ADVgen_bien</text>
<polygon fill="none" stroke="black" points="6058.92,-188.77 6058.92,-209.77 6114.92,-209.77 6114.92,-188.77 6058.92,-188.77"/>
<text text-anchor="start" x="6061.92" y="-195.57" font-family="Times,serif" font-size="14.00">exact: 17</text>
<polygon fill="none" stroke="black" points="5970.92,-167.77 5970.92,-188.77 6058.92,-188.77 6058.92,-167.77 5970.92,-167.77"/>
<text text-anchor="start" x="5973.92" y="-174.57" font-family="Bukyvede" font-size="14.00">bien</text>
<polygon fill="none" stroke="black" points="6058.92,-167.77 6058.92,-188.77 6114.92,-188.77 6114.92,-167.77 6058.92,-167.77"/>
<text text-anchor="start" x="6061.92" y="-174.57" font-family="Times,serif" font-size="14.00">W1, W3</text>
<polygon fill="none" stroke="black" points="5969.92,-166.77 5969.92,-210.77 6115.92,-210.77 6115.92,-166.77 5969.92,-166.77"/>
</g>
<!-- 16&#45;&gt;17 -->
<g id="edge19" class="edge"><title>16&#45;&gt;17</title>
<path fill="none" stroke="black" d="M5809.8,-149.797C5849.23,-156.417 5892.49,-163.68 5930.86,-170.123"/>
<polygon fill="black" stroke="black" points="5930.59,-173.625 5941.03,-171.829 5931.75,-166.722 5930.59,-173.625"/>
<text text-anchor="middle" x="5879.51" y="-167.57" font-family="Times,serif" font-size="14.00">W1, W3</text>
</g>
<!-- 20 -->
<g id="node20" class="node"><title>20</title>
<ellipse fill="none" stroke="black" cx="6042.92" cy="-96.7696" rx="120.831" ry="36.5405"/>
<polygon fill="none" stroke="black" points="5966.92,-96.7696 5966.92,-117.77 6063.92,-117.77 6063.92,-96.7696 5966.92,-96.7696"/>
<text text-anchor="start" x="5969.92" y="-104.57" font-family="Times,serif" font-weight="bold" font-size="14.00">ADVgen_mieus</text>
<polygon fill="none" stroke="black" points="6063.92,-96.7696 6063.92,-117.77 6119.92,-117.77 6119.92,-96.7696 6063.92,-96.7696"/>
<text text-anchor="start" x="6066.92" y="-103.57" font-family="Times,serif" font-size="14.00">exact: 17</text>
<polygon fill="none" stroke="black" points="5966.92,-75.7696 5966.92,-96.7696 6063.92,-96.7696 6063.92,-75.7696 5966.92,-75.7696"/>
<text text-anchor="start" x="5969.92" y="-82.5696" font-family="Bukyvede" font-size="14.00">miels</text>
<polygon fill="none" stroke="black" points="6063.92,-75.7696 6063.92,-96.7696 6119.92,-96.7696 6119.92,-75.7696 6063.92,-75.7696"/>
<text text-anchor="start" x="6066.92" y="-82.5696" font-family="Times,serif" font-size="14.00">W2</text>
<polygon fill="none" stroke="black" points="5965.42,-74.7696 5965.42,-118.77 6120.42,-118.77 6120.42,-74.7696 5965.42,-74.7696"/>
</g>
<!-- 16&#45;&gt;20 -->
<g id="edge20" class="edge"><title>16&#45;&gt;20</title>
<path fill="none" stroke="black" d="M5827.6,-115.961C5857.06,-113.323 5887.87,-110.565 5916.64,-107.988"/>
<polygon fill="black" stroke="black" points="5917.08,-111.463 5926.73,-107.085 5916.45,-104.491 5917.08,-111.463"/>
<text text-anchor="middle" x="5879.51" y="-116.57" font-family="Times,serif" font-size="14.00">W2</text>
</g>
<!-- 17&#45;&gt;2 -->
<g id="edge21" class="edge"><title>17&#45;&gt;2</title>
<path fill="none" stroke="black" d="M6147.89,-173.704C6180.29,-169.009 6215.37,-163.926 6245.35,-159.582"/>
<polygon fill="black" stroke="black" points="6245.91,-163.037 6255.31,-158.139 6244.91,-156.109 6245.91,-163.037"/>
<text text-anchor="middle" x="6206.34" y="-172.57" font-family="Times,serif" font-size="14.00">W1, W3</text>
</g>
<!-- 18&#45;&gt;3 -->
<g id="edge22" class="edge"><title>18&#45;&gt;3</title>
<path fill="none" stroke="black" d="M445.42,-97.8111C474.726,-103.489 506.654,-109.674 536.067,-115.373"/>
<polygon fill="black" stroke="black" points="535.455,-118.819 545.938,-117.285 536.786,-111.947 535.455,-118.819"/>
<text text-anchor="middle" x="496.61" y="-116.57" font-family="Times,serif" font-size="14.00">W2, W3</text>
</g>
<!-- 19&#45;&gt;11 -->
<g id="edge23" class="edge"><title>19&#45;&gt;11</title>
<path fill="none" stroke="black" d="M3527.32,-128.77C3549.45,-128.77 3572.53,-128.77 3595.04,-128.77"/>
<polygon fill="black" stroke="black" points="3595.33,-132.27 3605.33,-128.77 3595.33,-125.27 3595.33,-132.27"/>
<text text-anchor="middle" x="3576.91" y="-132.57" font-family="Times,serif" font-size="14.00">W2</text>
</g>
<!-- 20&#45;&gt;2 -->
<g id="edge24" class="edge"><title>20&#45;&gt;2</title>
<path fill="none" stroke="black" d="M6146.32,-116.059C6180.52,-122.501 6217.84,-129.533 6249.1,-135.42"/>
<polygon fill="black" stroke="black" points="6248.55,-138.878 6259.02,-137.289 6249.84,-131.999 6248.55,-138.878"/>
<text text-anchor="middle" x="6206.34" y="-136.57" font-family="Times,serif" font-size="14.00">W2</text>
</g>
<!-- 21&#45;&gt;6 -->
<g id="edge25" class="edge"><title>21&#45;&gt;6</title>
<path fill="none" stroke="black" d="M1788.13,-98.4061C1808.57,-101.78 1830.27,-105.361 1851.33,-108.835"/>
<polygon fill="black" stroke="black" points="1850.84,-112.302 1861.27,-110.477 1851.98,-105.395 1850.84,-112.302"/>
<text text-anchor="middle" x="1828.66" y="-110.57" font-family="Times,serif" font-size="14.00">W3</text>
</g>
<!-- 22&#45;&gt;11 -->
<g id="edge26" class="edge"><title>22&#45;&gt;11</title>
<path fill="none" stroke="black" d="M3498.1,-63.9992C3541.56,-75.4275 3592.12,-88.7215 3636.08,-100.281"/>
<polygon fill="black" stroke="black" points="3635.37,-103.714 3645.93,-102.873 3637.15,-96.9446 3635.37,-103.714"/>
<text text-anchor="middle" x="3576.91" y="-89.5696" font-family="Times,serif" font-size="14.00">W3</text>
</g>
</g>
</svg>
